<?xml version="1.0" standalone="no"?>
<!DOCTYPE svg PUBLIC "-//W3C//DTD SVG 20010904//EN"
 "http://www.w3.org/TR/2001/REC-SVG-20010904/DTD/svg10.dtd">
<svg version="1.0" xmlns="http://www.w3.org/2000/svg"
 width="213.000000pt" height="349.000000pt" viewBox="0 0 213.000000 349.000000"
 preserveAspectRatio="xMidYMid meet">

<g transform="translate(0.000000,349.000000) scale(0.100000,-0.100000)"
fill="#000000" stroke="none">
<path d="M1025 3426 c-138 -44 -266 -162 -315 -294 -46 -121 -6 -423 78 -585
22 -41 42 -85 45 -98 12 -44 17 -12 7 41 -13 70 -11 157 4 199 13 35 36 54 36
29 0 -19 49 -88 62 -88 7 0 4 6 -5 13 -20 15 -47 78 -47 111 0 19 -4 23 -20
19 -12 -3 -20 0 -20 7 0 6 10 10 23 8 16 -2 23 -11 25 -31 4 -36 22 -25 22 14
0 35 13 42 66 36 33 -3 36 -5 17 -12 -13 -4 -20 -12 -17 -17 4 -6 -1 -8 -13
-4 -22 7 -49 -16 -38 -34 8 -13 35 -13 35 0 0 6 5 10 10 10 6 0 8 -11 4 -25
-6 -23 -3 -25 27 -25 50 0 85 21 81 50 -2 23 15 43 30 34 15 -10 8 -77 -12
-109 -24 -39 -69 -57 -119 -50 -33 5 -34 4 -13 -6 16 -9 37 -10 69 -3 60 12
93 55 93 122 0 27 6 52 15 62 14 16 14 19 -7 32 -29 19 -88 30 -157 29 l-54 0
75 77 c42 42 90 92 107 111 l32 35 60 -60 c61 -60 149 -169 149 -185 0 -5 -7
-6 -15 -3 -19 8 -155 -15 -155 -26 0 -5 8 -15 18 -22 11 -9 18 -29 20 -62 3
-63 19 -95 61 -123 42 -28 85 -29 135 -3 l38 21 -4 -66 -3 -65 32 37 c76 88
143 275 143 398 0 202 -101 373 -272 458 -110 56 -240 72 -333 43z m45 -620
c0 -11 -19 -15 -25 -6 -3 5 1 10 9 10 9 0 16 -2 16 -4z m318 -49 c3 -16 1 -17
-17 -5 -25 16 -27 31 -4 26 10 -2 19 -11 21 -21z m127 -27 c3 -5 -1 -10 -9
-10 -9 0 -16 5 -16 10 0 6 4 10 9 10 6 0 13 -4 16 -10z m-38 -37 c-12 -73 -92
-120 -158 -93 -37 16 -69 55 -69 86 0 22 1 22 31 7 19 -10 44 -13 66 -10 42 7
71 -6 82 -36 8 -21 9 -20 25 10 9 18 16 41 16 53 0 11 3 20 6 20 4 0 4 -16 1
-37z"/>
<path d="M1145 2571 c-34 -4 -49 -10 -47 -19 1 -7 -8 -22 -20 -32 -22 -18 -22
-18 42 -18 36 0 78 -6 94 -12 25 -9 27 -9 17 4 -10 12 -9 18 8 32 20 17 20 17
-4 36 -13 10 -27 17 -32 16 -4 0 -30 -4 -58 -7z"/>
<path d="M980 2481 c-14 -27 -13 -51 3 -52 6 0 26 -2 42 -3 24 -3 33 2 42 20
10 22 9 24 -12 24 -13 0 -25 7 -29 15 -8 21 -33 19 -46 -4z"/>
<path d="M1283 2472 c-13 -2 -23 -7 -23 -10 0 -4 -29 -5 -66 -2 -77 7 -108 -5
-41 -15 30 -5 47 -12 47 -21 0 -9 12 -14 33 -14 17 0 41 -7 51 -15 17 -13 18
-18 8 -40 -15 -33 -15 -36 3 -29 9 4 15 0 15 -9 0 -23 -36 -63 -69 -77 -39
-16 -167 -9 -202 10 -15 8 -45 25 -67 37 -23 13 -53 35 -67 50 -30 33 -34 13
-6 -33 15 -25 18 -46 15 -112 -3 -78 -2 -82 24 -102 56 -43 153 -102 159 -96
3 3 18 -2 34 -11 26 -15 30 -15 46 -1 10 9 33 19 51 23 18 4 36 14 39 23 4 10
11 20 17 24 10 7 26 60 50 165 7 34 26 83 41 108 24 41 25 45 7 36 -11 -6 -22
-16 -25 -23 -3 -10 -7 -10 -20 1 -19 15 -23 56 -7 66 28 17 -11 74 -47 67z"/>
<path d="M1155 2363 c-91 -10 -98 -26 -19 -41 44 -9 60 -9 74 1 33 23 1 45
-55 40z"/>
<path d="M843 2273 c-16 -21 -40 -55 -52 -76 -29 -48 -91 -77 -336 -159 -99
-33 -192 -66 -206 -74 -44 -22 -67 -127 -119 -544 -30 -235 -21 -802 14 -940
38 -147 45 -165 77 -190 17 -14 53 -47 79 -73 30 -29 67 -54 95 -64 34 -11 53
-25 68 -50 26 -45 46 -51 175 -59 146 -9 237 6 337 55 44 22 88 42 98 45 27 8
167 -12 275 -40 107 -28 180 -28 262 1 61 22 88 50 106 111 14 50 70 140 122
196 14 15 45 34 71 43 66 22 122 65 139 105 53 125 54 349 2 715 -33 237 -52
356 -64 400 -8 28 -17 75 -20 105 -11 90 -37 159 -68 182 -33 23 -95 49 -273
113 -147 54 -208 85 -247 129 l-27 31 -1 -42 c0 -23 -11 -77 -25 -118 -13 -42
-28 -106 -31 -142 -12 -114 -63 -147 -166 -106 -61 24 -136 90 -163 143 -13
25 -38 74 -56 109 -31 59 -33 71 -31 147 1 46 0 84 -2 84 -3 0 -17 -17 -33
-37z m735 -1320 c7 -12 18 -15 45 -10 26 4 39 1 50 -11 32 -36 30 -59 -10
-124 -21 -35 -40 -65 -43 -68 -3 -3 -17 -19 -32 -37 l-26 -32 -21 49 c-12 28
-23 50 -24 50 -1 0 -2 -26 -3 -58 0 -38 -6 -66 -19 -86 l-19 -28 -22 88 c-12
49 -29 106 -38 126 -21 49 -21 51 11 45 26 -5 26 -4 8 9 -10 8 -15 14 -9 14 5
0 3 4 -5 9 -13 8 -13 12 0 27 41 50 137 73 157 37z m-918 -163 c25 -10 45 -23
45 -30 0 -7 -16 -21 -35 -33 l-36 -20 -37 34 c-28 26 -35 39 -31 57 7 25 10
24 94 -8z"/>
</g>
</svg>
